0
SECTION
2
HEADER
9
$INSUNITS
70
4
9
$ACADVER
1
AC1014
9
$HANDSEED
5
FFFF
0
ENDSEC
0
SECTION
2
TABLES
0
TABLE
2
VPORT
5
8
100
AcDbSymbolTable
0
ENDTAB
0
TABLE
2
LTYPE
5
5
100
AcDbSymbolTable
0
LTYPE
5
14
100
AcDbSymbolTableRecord
100
AcDbLinetypeTableRecord
2
BYBLOCK
70
0
0
LTYPE
5
15
100
AcDbSymbolTableRecord
100
AcDbLinetypeTableRecord
2
BYLAYER
70
0
0
ENDTAB
0
TABLE
2
LAYER
5
2
100
AcDbSymbolTable
70
2
0
LAYER
5
50
100
AcDbSymbolTableRecord
100
AcDbLayerTableRecord
2
0
70
0
6
CONTINUOUS
0
ENDTAB
0
TABLE
2
STYLE
5
3
100
AcDbSymbolTable
70
1
0
STYLE
5
11
100
AcDbSymbolTableRecord
100
AcDbTextStyleTableRecord
2
STANDARD
70
0
0
ENDTAB
0
TABLE
2
VIEW
5
6
100
AcDbSymbolTable
70
0
0
ENDTAB
0
TABLE
2
UCS
5
7
100
AcDbSymbolTable
70
0
0
ENDTAB
0
TABLE
2
APPID
5
9
100
AcDbSymbolTable
70
2
0
APPID
5
12
100
AcDbSymbolTableRecord
100
AcDbRegAppTableRecord
2
ACAD
70
0
0
ENDTAB
0
TABLE
2
DIMSTYLE
5
A
100
AcDbSymbolTable
70
1
0
ENDTAB
0
TABLE
2
BLOCK_RECORD
5
1
100
AcDbSymbolTable
70
1
0
BLOCK_RECORD
5
1F
100
AcDbSymbolTableRecord
100
AcDbBlockTableRecord
2
*MODEL_SPACE
0
BLOCK_RECORD
5
1B
100
AcDbSymbolTableRecord
100
AcDbBlockTableRecord
2
*PAPER_SPACE
0
ENDTAB
0
ENDSEC
0
SECTION
2
BLOCKS
0
BLOCK
5
20
100
AcDbEntity
100
AcDbBlockBegin
2
*MODEL_SPACE
0
ENDBLK
5
21
100
AcDbEntity
100
AcDbBlockEnd
0
BLOCK
5
1C
100
AcDbEntity
100
AcDbBlockBegin
2
*PAPER_SPACE
0
ENDBLK
5
1D
100
AcDbEntity
100
AcDbBlockEnd
0
ENDSEC
0
SECTION
2
ENTITIES
0
CIRCLE
5
100
100
AcDbEntity
8
0
100
AcDbCircle
10
-33.584601690310464
20
5.3290705182007514e-14
30
0
40
1.5999999999999992
0
CIRCLE
5
101
100
AcDbEntity
8
0
100
AcDbCircle
10
-0.00014198892574424082
20
33.584743679236311
30
0
40
1.5999999999999992
0
CIRCLE
5
102
100
AcDbEntity
8
0
100
AcDbCircle
10
-60.573521686795715
20
-26.988919996485095
30
0
40
1.6000000000000014
0
CIRCLE
5
103
100
AcDbEntity
8
0
100
AcDbCircle
10
26.988919996485322
20
60.573521686795615
30
0
40
1.6000000000000014
0
CIRCLE
5
104
100
AcDbEntity
8
0
100
AcDbCircle
10
33.584601690310471
20
-3.9968028886505635e-14
30
0
40
1.5999999999999992
0
CIRCLE
5
105
100
AcDbEntity
8
0
100
AcDbCircle
10
60.573521686795722
20
26.988919996485095
30
0
40
1.6000000000000014
0
CIRCLE
5
106
100
AcDbEntity
8
0
100
AcDbCircle
10
-4.6629367034256575e-14
20
-33.584601690310464
30
0
40
1.5999999999999992
0
CIRCLE
5
107
100
AcDbEntity
8
0
100
AcDbCircle
10
-26.988919996485315
20
-60.57352168679563
30
0
40
1.6000000000000014
0
CIRCLE
5
108
100
AcDbEntity
8
0
100
AcDbCircle
10
26.98891999648513
20
-60.573521686795729
30
0
40
1.6000000000000014
0
CIRCLE
5
109
100
AcDbEntity
8
0
100
AcDbCircle
10
60.573521686795637
20
-26.988919996485308
30
0
40
1.6000000000000014
0
CIRCLE
5
110
100
AcDbEntity
8
0
100
AcDbCircle
10
-26.988919996485087
20
60.573521686795715
30
0
40
1.6000000000000014
0
CIRCLE
5
111
100
AcDbEntity
8
0
100
AcDbCircle
10
-60.57352168679563
20
26.988919996485329
30
0
40
1.6000000000000014
0
LWPOLYLINE
5
112
100
AcDbEntity
8
0
100
AcDbPolyline
90
18
70
1
43
0.0
10
70.532413593026973
20
-28.462530528478087
10
28.462530528477885
20
-70.532413593027087
10
46.47454842827679
20
-88.544431492825964
42
-0.24649122787826927
10
-46.474548428276975
20
-88.544431492825879
10
-28.462530528478087
20
-70.532413593026973
10
-70.532413593027087
20
-28.46253052847787
10
-88.544431492826021
20
-46.474548428276833
42
-0.24649122787826927
10
-88.544431492825908
20
46.474548428276997
10
-70.532413593027002
20
28.462530528478098
10
-28.46253052847787
20
70.532413593027073
10
-46.474548428276783
20
88.544431492825993
10
-37.524052401448941
20
93.004097497555335
42
0.54005110435985659
10
37.524052401449069
20
93.00409749755525
10
46.474548428276933
20
88.544431492825908
10
28.462530528478062
20
70.532413593027016
10
70.532413593027087
20
28.462530528477906
10
88.544431492826007
20
46.474548428276819
42
-0.24649122787826927
10
88.544431492825908
20
-46.474548428276989
0
CIRCLE
5
113
100
AcDbEntity
8
0
100
AcDbCircle
10
84.388720232561397
20
-0.037739562854328668
30
0
40
2.8999999999999999
0
CIRCLE
5
114
100
AcDbEntity
8
0
100
AcDbCircle
10
-0.037739562854337549
20
-84.388720232561383
30
0
40
2.8999999999999999
0
CIRCLE
5
115
100
AcDbEntity
8
0
100
AcDbCircle
10
-84.388720232561383
20
0.037739562854355313
30
0
40
2.8999999999999999
0
CIRCLE
5
116
100
AcDbEntity
8
0
100
AcDbCircle
10
-0.020471014115535119
20
66.778040524910253
30
0
40
1.75
0
CIRCLE
5
117
100
AcDbEntity
8
0
100
AcDbCircle
10
-10.387953014518796
20
55.776846432148076
30
0
40
1.75
0
CIRCLE
5
118
100
AcDbEntity
8
0
100
AcDbCircle
10
10.373189645287052
20
55.791474912183219
30
0
40
1.75
0
ENDSEC
0
SECTION
2
OBJECTS
0
DICTIONARY
5
C
100
AcDbDictionary
3
ACAD_GROUP
350
D
3
ACAD_MLINESTYLE
350
17
0
DICTIONARY
5
D
100
AcDbDictionary
0
DICTIONARY
5
1A
330
C
100
AcDbDictionary
0
DICTIONARY
5
17
100
AcDbDictionary
0
ENDSEC
0
EOF
