0
SECTION
2
HEADER
9
$INSUNITS
70
4
9
$ACADVER
1
AC1014
9
$HANDSEED
5
FFFF
0
ENDSEC
0
SECTION
2
TABLES
0
TABLE
2
VPORT
5
8
100
AcDbSymbolTable
0
ENDTAB
0
TABLE
2
LTYPE
5
5
100
AcDbSymbolTable
0
LTYPE
5
14
100
AcDbSymbolTableRecord
100
AcDbLinetypeTableRecord
2
BYBLOCK
70
0
0
LTYPE
5
15
100
AcDbSymbolTableRecord
100
AcDbLinetypeTableRecord
2
BYLAYER
70
0
0
ENDTAB
0
TABLE
2
LAYER
5
2
100
AcDbSymbolTable
70
2
0
LAYER
5
50
100
AcDbSymbolTableRecord
100
AcDbLayerTableRecord
2
0
70
0
6
CONTINUOUS
0
ENDTAB
0
TABLE
2
STYLE
5
3
100
AcDbSymbolTable
70
1
0
STYLE
5
11
100
AcDbSymbolTableRecord
100
AcDbTextStyleTableRecord
2
STANDARD
70
0
0
ENDTAB
0
TABLE
2
VIEW
5
6
100
AcDbSymbolTable
70
0
0
ENDTAB
0
TABLE
2
UCS
5
7
100
AcDbSymbolTable
70
0
0
ENDTAB
0
TABLE
2
APPID
5
9
100
AcDbSymbolTable
70
2
0
APPID
5
12
100
AcDbSymbolTableRecord
100
AcDbRegAppTableRecord
2
ACAD
70
0
0
ENDTAB
0
TABLE
2
DIMSTYLE
5
A
100
AcDbSymbolTable
70
1
0
ENDTAB
0
TABLE
2
BLOCK_RECORD
5
1
100
AcDbSymbolTable
70
1
0
BLOCK_RECORD
5
1F
100
AcDbSymbolTableRecord
100
AcDbBlockTableRecord
2
*MODEL_SPACE
0
BLOCK_RECORD
5
1B
100
AcDbSymbolTableRecord
100
AcDbBlockTableRecord
2
*PAPER_SPACE
0
ENDTAB
0
ENDSEC
0
SECTION
2
BLOCKS
0
BLOCK
5
20
100
AcDbEntity
100
AcDbBlockBegin
2
*MODEL_SPACE
0
ENDBLK
5
21
100
AcDbEntity
100
AcDbBlockEnd
0
BLOCK
5
1C
100
AcDbEntity
100
AcDbBlockBegin
2
*PAPER_SPACE
0
ENDBLK
5
1D
100
AcDbEntity
100
AcDbBlockEnd
0
ENDSEC
0
SECTION
2
ENTITIES
0
CIRCLE
5
100
100
AcDbEntity
8
0
100
AcDbCircle
10
53.959604583246076
20
11.029466693493399
30
0
40
1.749999999999996
0
CIRCLE
5
101
100
AcDbEntity
8
0
100
AcDbCircle
10
1.0097701662542589
20
-41.920367723495964
30
0
40
1.7500000000000073
0
CIRCLE
5
102
100
AcDbEntity
8
0
100
AcDbCircle
10
7.3142028110308974
20
-14.072525095990931
30
0
40
1.7499999999999876
0
CIRCLE
5
103
100
AcDbEntity
8
0
100
AcDbCircle
10
-12.440804811210793
20
5.6428404376092711
30
0
40
1.7500000000000111
0
CIRCLE
5
104
100
AcDbEntity
8
0
100
AcDbCircle
10
-37.542182783237585
20
-12.276177560223777
30
0
40
1.749999999999994
0
CIRCLE
5
105
100
AcDbEntity
8
0
100
AcDbCircle
10
20.759132989396672
20
46.037957589002296
30
0
40
1.7499999999999964
0
CIRCLE
5
106
100
AcDbEntity
8
0
100
AcDbCircle
10
26.845395920739243
20
-88.615223177116732
30
6.3948846218409017e-13
40
1.7500000000000338
0
CIRCLE
5
107
100
AcDbEntity
8
0
100
AcDbCircle
10
0.76969214945340814
20
-62.365315123332053
30
6.3948846218409017e-13
40
1.7499999999999893
0
CIRCLE
5
108
100
AcDbEntity
8
0
100
AcDbCircle
10
27.019600203238063
20
-36.28961135204618
30
6.3948846218409017e-13
40
1.7499999999999849
0
CIRCLE
5
109
100
AcDbEntity
8
0
100
AcDbCircle
10
53.095303974523979
20
-62.539519405830887
30
6.3948846218409017e-13
40
1.7500000000000027
0
CIRCLE
5
110
100
AcDbEntity
8
0
100
AcDbCircle
10
-0.13712711092779287
20
42.944940207558695
30
0
40
1.3749999999999973
0
CIRCLE
5
111
100
AcDbEntity
8
0
100
AcDbCircle
10
-34.785359389067736
20
77.593172485698545
30
0
40
1.3750000000000013
0
CIRCLE
5
112
100
AcDbEntity
8
0
100
AcDbCircle
10
-75.797552697886431
20
36.580979176879858
30
0
40
1.3749999999999998
0
CIRCLE
5
113
100
AcDbEntity
8
0
100
AcDbCircle
10
-41.149320419746445
20
1.9327468987399619
30
0
40
1.3750000000000022
0
CIRCLE
5
114
100
AcDbEntity
8
0
100
AcDbCircle
10
-84.388720232561383
20
0.037739562854355313
30
0
40
2.8999999999999999
0
CIRCLE
5
115
100
AcDbEntity
8
0
100
AcDbCircle
10
-0.037739562854337549
20
-84.388720232561383
30
0
40
2.8999999999999999
0
CIRCLE
5
116
100
AcDbEntity
8
0
100
AcDbCircle
10
84.388720232561397
20
-0.037739562854328668
30
0
40
2.8999999999999999
0
CIRCLE
5
117
100
AcDbEntity
8
0
100
AcDbCircle
10
-0.03773956285414215
20
57.839548411809716
30
0
40
2.8999999999999999
0
CIRCLE
5
118
100
AcDbEntity
8
0
100
AcDbCircle
10
-84.388720232561383
20
0.037739562854355313
30
0
40
2.8999999999999999
0
CIRCLE
5
119
100
AcDbEntity
8
0
100
AcDbCircle
10
-0.03773956285414215
20
57.839548411809716
30
0
40
2.8999999999999999
0
CIRCLE
5
120
100
AcDbEntity
8
0
100
AcDbCircle
10
84.388720232561397
20
-0.037739562854328668
30
0
40
2.8999999999999999
0
CIRCLE
5
121
100
AcDbEntity
8
0
100
AcDbCircle
10
-0.037739562854337549
20
-84.388720232561383
30
0
40
2.8999999999999999
0
CIRCLE
5
122
100
AcDbEntity
8
0
100
AcDbCircle
10
-18.278490153728335
20
-54.766294641892955
30
6.3948846218409017e-13
40
1.7499999999999893
0
CIRCLE
5
123
100
AcDbEntity
8
0
100
AcDbCircle
10
-44.528398207512979
20
-28.690590870606979
30
6.3948846218409017e-13
40
1.7499999999999849
0
CIRCLE
5
124
100
AcDbEntity
8
0
100
AcDbCircle
10
-70.604101978799008
20
-54.940498924391683
30
6.3948846218409017e-13
40
1.7500000000000027
0
CIRCLE
5
125
100
AcDbEntity
8
0
100
AcDbCircle
10
-44.354193925014265
20
-81.016202695677634
30
6.3948846218409017e-13
40
1.7500000000000338
0
LWPOLYLINE
5
126
100
AcDbEntity
8
0
100
AcDbPolyline
90
4
70
1
43
0.0
10
-68.664678965980755
20
-17.888106913642901
10
-59.634826281029028
20
-26.917959598594638
10
-73.776640555658446
20
-41.059773873224081
10
-82.806168484705438
20
-32.029596448829771
0
LWPOLYLINE
5
127
100
AcDbEntity
8
0
100
AcDbPolyline
90
4
70
1
43
0.0
10
73.28900113213318
20
-2.0210439525976698
10
87.430490659089045
20
12.120445574357948
10
78.40063796888154
20
21.150298254053865
10
64.258823702483255
20
7.0084839711933249
0
CIRCLE
5
128
100
AcDbEntity
8
0
100
AcDbCircle
10
85.126715362662324
20
40.955819555929708
30
0
40
1.5000000000000009
0
CIRCLE
5
129
100
AcDbEntity
8
0
100
AcDbCircle
10
72.409359955344115
20
28.31619742931888
30
0
40
1.5000000000000009
0
LWPOLYLINE
5
130
100
AcDbEntity
8
0
100
AcDbPolyline
90
4
70
1
43
0.0
10
-26.148869866885445
20
-77.635484715929408
10
-12.019675065989244
20
-63.481711142767864
10
-2.9819785783644837
20
-72.50371320558267
10
-17.111497852834503
20
-86.657811800286765
0
CIRCLE
5
131
100
AcDbEntity
8
0
100
AcDbCircle
10
36.989157485628311
20
-26.357466346651854
30
6.3948846218409017e-13
40
1.7499999999999893
0
CIRCLE
5
132
100
AcDbEntity
8
0
100
AcDbCircle
10
89.314769310698694
20
-26.531670629150685
30
6.3948846218409017e-13
40
1.7500000000000027
0
CIRCLE
5
133
100
AcDbEntity
8
0
100
AcDbCircle
10
63.064861256914014
20
-52.607374400436427
30
6.3948846218409017e-13
40
1.7500000000000338
0
CIRCLE
5
134
100
AcDbEntity
8
0
100
AcDbCircle
10
63.239065539412834
20
-0.28176257536606575
30
6.3948846218409017e-13
40
1.7499999999999849
0
LWPOLYLINE
5
135
100
AcDbEntity
8
0
100
AcDbPolyline
90
5
70
1
43
0.0
10
19
20
74.350000000000009
10
0
20
74.350000000000009
10
-19
20
74.350000000000009
10
-19.000000000000004
20
98.178409031721429
42
10.430442580616912
10
19
20
98.178409031721429
0
CIRCLE
5
136
100
AcDbEntity
8
0
100
AcDbCircle
10
-29
20
88.528409031721424
30
6.3948846218409017e-13
40
1.7499999999999849
0
CIRCLE
5
137
100
AcDbEntity
8
0
100
AcDbCircle
10
29
20
88.528409031721438
30
6.3948846218409017e-13
40
1.7499999999999849
0
ENDSEC
0
SECTION
2
OBJECTS
0
DICTIONARY
5
C
100
AcDbDictionary
3
ACAD_GROUP
350
D
3
ACAD_MLINESTYLE
350
17
0
DICTIONARY
5
D
100
AcDbDictionary
0
DICTIONARY
5
1A
330
C
100
AcDbDictionary
0
DICTIONARY
5
17
100
AcDbDictionary
0
ENDSEC
0
EOF
